<svg version="1.0" xmlns="http://www.w3.org/2000/svg"  width="512" height="512" viewBox="0 0 512 512"  preserveAspectRatio="xMidYMid meet">
  <g transform="translate(0,512) scale(0.1,-0.1)" fill="#555" stroke="none">
    <path d="M2425 4909 c-484 -25 -965 -211 -1350 -524 -186 -151 -389 -382 -516 -586 -67 -108 -178 -338 -219 -454 -66 -188 -130 -501 -130 -638 l0 -47 716 2 717 3 17 85 c85 421 466 730 900 730 434 0 815 -309 900 -730 l17 -85 717 -3 716 -2 0 39 c0 60 -28 263 -51 371 -48 222 -173 528 -298 729 -163 263 -427 539 -678 709 -342 232 -772 380 -1153 398 -63 2 -128 6 -145 7 -16 2 -88 0 -160 -4z"/>
    <path d="M2433 3055 c-271 -73 -437 -352 -368 -618 100 -383 570 -516 851 -242 285 279 155 759 -232 860 -72 18 -182 18 -251 0z"/>
    <path d="M210 2413 c0 -76 38 -314 70 -436 41 -161 83 -273 159 -432 119 -248 242 -424 431 -618 378 -391 845 -626 1390 -702 134 -18 434 -21 567 -5 700 86 1301 456 1698 1045 139 206 282 542 334 785 23 108 51 311 51 371 l0 39 -716 -2 -717 -3 -17 -85 c-85 -421 -466 -730 -900 -730 -433 0 -815 309 -900 730 l-17 85 -717 3 -716 2 0 -47z"/>
  </g>
</svg>